<svg width="280" height="245" viewBox="0 0 280 245" fill="none" xmlns="http://www.w3.org/2000/svg">
<path opacity="0.34" d="M28.8302 244.175H255.377C258.267 244.175 260.609 241.65 260.609 238.533C260.609 235.416 258.267 232.891 255.377 232.891H28.8302C25.9398 232.891 23.5983 235.416 23.5983 238.533C23.5983 241.65 25.9398 244.175 28.8302 244.175Z" fill="black"/>
<path d="M12.1834 169.848H58.2464C62.9296 169.848 66.7346 165.745 66.7346 160.695C66.7346 155.646 62.9296 151.543 58.2464 151.543H32.5258C26.9646 151.543 22.4644 146.69 22.4644 140.693C22.4644 134.697 26.9646 129.844 32.5258 129.844H55.3926C61.649 129.844 66.7346 124.36 66.7346 117.614C66.7346 110.868 61.649 105.384 55.3926 105.384H29.9647C24.4035 105.384 19.8667 100.492 19.8667 94.4953C19.8667 88.4986 24.4035 83.6066 29.9647 83.6066H66.698H75.4789C81.0401 83.6066 85.5769 78.7146 85.5769 72.7179C85.5769 66.7212 81.0401 61.8292 75.4789 61.8292H65.5272C59.966 61.8292 55.4292 56.9371 55.4292 50.9405C55.4292 44.9438 59.966 40.0518 65.5272 40.0518H71.1982H72.1495H132.262H134.311H197.094H211.473C217.034 40.0518 221.571 44.9438 221.571 50.9405C221.571 56.9371 217.034 61.8292 211.473 61.8292H207.192C201.631 61.8292 197.094 66.7212 197.094 72.7179C197.094 78.7146 201.631 83.6066 207.192 83.6066H245.718C249.999 83.6066 253.474 87.3545 253.474 91.9704C253.474 96.5863 249.999 100.334 245.718 100.334H205.143C200.679 100.334 197.057 104.24 197.057 109.053C197.057 113.866 200.679 117.772 205.143 117.772H269.902C275.463 117.772 280 122.664 280 128.661C280 134.657 275.463 139.549 269.902 139.549H207.192C201.631 139.549 197.094 144.441 197.094 150.438C197.094 156.435 201.631 161.327 207.192 161.327H245.059C253.987 161.327 261.231 169.138 261.231 178.764C261.231 188.391 253.987 196.202 245.059 196.202H197.094H175.8H163.836H66.698H12.1834C5.45145 196.202 0 190.324 0 183.065C0 175.727 5.45145 169.848 12.1834 169.848Z" fill="#F1FBFF"/>
<path d="M97.6479 238.541H91.0622L91.0622 131.705H97.6479L97.6479 238.541Z" fill="#2F262D"/>
<path d="M122.713 153.239C123.774 150.675 122.713 147.637 120.298 146.454C119.676 146.177 119.018 146.02 118.359 146.02C116.493 146.02 114.773 147.203 114.005 149.057L90.5895 205.947L99.2972 210.129L122.713 153.239Z" fill="#FC9F6F"/>
<path d="M161.859 238.541H155.273V131.705H161.859V238.541Z" fill="#2F262D"/>
<path d="M131.384 138.68C154.031 138.68 172.361 120.059 172.361 97.1376C172.361 91.2198 171.117 85.5782 168.922 80.4495C183.337 86.8801 193.399 101.517 193.399 118.481C193.399 141.442 175.069 160.024 152.421 160.024C135.628 160.024 121.213 149.806 114.883 135.169C119.969 137.418 125.53 138.68 131.384 138.68Z" fill="#F2F2F2"/>
<path d="M154.067 149.926C141.681 149.926 131.639 139.982 131.639 127.715C131.639 115.448 141.681 105.503 154.067 105.503C166.454 105.503 176.495 115.448 176.495 127.715C176.495 139.982 166.454 149.926 154.067 149.926Z" fill="#3B323A"/>
<path d="M194.459 131.697H244.62C246.523 131.697 248.096 130 248.096 127.949V124.398C248.096 122.347 246.523 120.65 244.62 120.65H194.459C192.557 120.65 190.984 122.347 190.984 124.398V127.949C190.984 130 192.557 131.697 194.459 131.697Z" fill="#AFAFAF"/>
<path d="M134.64 110.79C141.664 110.79 147.372 104.635 147.372 97.0605V83.3312C147.372 78.0841 151.287 73.8628 156.153 73.8628V97.0605C156.153 109.882 146.531 120.258 134.64 120.258H116.822V110.79H134.64Z" fill="#EF9067"/>
<path d="M131.75 38.3138C133.067 56.2644 147.701 76.1482 161.385 73.6233C174.483 71.2167 183.483 48.9264 179.056 33.3035C176.312 23.6772 168.776 17.6411 162.702 12.7885C156.409 7.73866 152.165 4.34581 147.336 5.17429C137.75 6.75237 130.689 24.0323 131.75 38.3138Z" fill="#603936"/>
<path d="M150.226 89.4061C150.482 89.0905 152.531 86.5261 152.897 86.1711C153.848 81.9497 155.787 77.2944 155.385 71.8501C158.129 69.6802 162.666 66.9186 167.824 67.3131C169.361 67.4315 170.971 67.826 171.776 68.0232C176.239 69.1279 179.057 70.9032 179.971 71.495C181.215 72.3235 181.837 72.718 182.569 73.507C184.545 75.7163 185.02 78.3991 185.276 79.9771C187.472 93.7064 185.752 106.883 185.533 108.027C185.13 110.118 184.581 111.973 184.581 111.973C183.667 115.089 182.569 117.022 182.276 117.89C180.813 122.151 177.483 131.107 173.971 137.932C171.41 138.366 165.593 141.128 161.751 139.707C155.897 137.537 143.823 132.685 139.506 131.699C144.884 125.189 149.824 117.93 151.104 109.093C151.434 106.804 151.726 104.556 151.946 102.346C151.434 102.07 148.324 100.374 147.702 96.9809C147.043 93.3119 149.714 90.0374 150.226 89.4061Z" fill="#008979"/>
<path d="M163.438 81.0772C160.246 80.1174 158.499 76.0898 159.536 72.0813C160.572 68.0729 164 65.6014 167.192 66.5612C170.384 67.521 172.131 71.5486 171.095 75.5571C170.058 79.5656 166.63 82.037 163.438 81.0772Z" fill="#EF9067"/>
<path d="M166.251 64.8658C164.239 69.9946 160.91 71.7699 158.787 73.1113C154.653 75.7151 146.897 75.4784 146.897 75.4784C146.641 73.6636 146.385 72.0855 145.067 69.0872C143.165 64.6291 141.409 63.5639 138.957 59.5398C135.299 53.4643 133.469 46.1262 134.64 45.4161C135.482 44.8638 137.787 47.7043 139.287 49.3613C143.567 54.0955 153.153 61.1179 166.251 64.8658Z" fill="#603936"/>
<path d="M166.397 76.1506H167.934C171.3 76.1506 174.007 73.2312 174.007 69.6016V44.7075H161.861V71.2192C161.861 73.9413 163.909 76.1506 166.397 76.1506Z" fill="#EF9067"/>
<path d="M234.785 238.541H228.199V131.705H234.785V238.541Z" fill="#2F262D"/>
<path d="M194.279 238.541H187.694V131.705H194.279V238.541Z" fill="#494149"/>
<path d="M58.0087 238.541H51.423L51.423 131.705H58.0087L58.0087 238.541Z" fill="#494149"/>
<path opacity="0.71" d="M174.007 47.3505C173.203 54.8858 168.373 61.1191 161.861 63.4863V43.208H174.007V47.3505Z" fill="#D36B46"/>
<path d="M156.153 62.4994C165.08 62.4994 172.288 54.7274 172.288 45.1012V23.8761C172.288 22.9687 171.629 22.2585 170.787 22.2585H147.847C143.53 22.2585 140.018 26.0459 140.018 30.7012V45.1012C140.018 54.7274 147.225 62.4994 156.153 62.4994Z" fill="#FC9F6F"/>
<path d="M140.018 42.6162C140.201 43.0896 140.64 43.4053 141.116 43.4053H148.214C148.872 43.4053 149.421 42.8135 149.421 42.1033V37.8031C149.421 37.093 148.872 36.5012 148.214 36.5012H141.116C140.64 36.5012 140.201 36.8168 140.018 37.2902V35.6332C140.347 35.436 140.713 35.3176 141.116 35.3176H148.214C149.494 35.3176 150.519 36.4223 150.519 37.8031V42.1033C150.519 43.4842 149.494 44.5888 148.214 44.5888H141.116C140.713 44.5888 140.347 44.4705 140.018 44.2732V42.6162Z" fill="#DD9883"/>
<path d="M154.287 43.9565H161.385C162.373 43.9565 163.141 43.0886 163.141 42.0628V37.7626C163.141 36.6974 162.336 35.8689 161.385 35.8689H154.287C153.299 35.8689 152.531 36.7368 152.531 37.7626V42.0628C152.531 43.128 153.336 43.9565 154.287 43.9565Z" stroke="#DD9883" stroke-width="3" stroke-miterlimit="10" stroke-linecap="round" stroke-linejoin="round"/>
<path opacity="0.6" d="M162.263 48.4146V27.1895C162.263 26.2822 161.604 25.572 160.763 25.572L147.518 20.5616C148.945 18.5496 145.323 22.2975 147.847 22.2975H170.787C171.629 22.2975 172.288 23.0077 172.288 23.9151V45.1401C172.288 54.7664 165.08 62.5384 156.153 62.5384C155.97 62.5384 155.787 62.5384 155.567 62.5384C159.628 59.3428 162.263 54.2141 162.263 48.4146Z" fill="#EF9067"/>
<path d="M141.116 43.1682H148.213C149.201 43.1682 149.97 42.3003 149.97 41.2745V36.9743C149.97 35.9091 149.165 35.0806 148.213 35.0806H141.116C140.128 35.0806 139.359 35.9485 139.359 36.9743V41.2745C139.359 42.3397 140.164 43.1682 141.116 43.1682Z" stroke="#F6CDF7" stroke-width="3" stroke-miterlimit="10" stroke-linecap="round" stroke-linejoin="round"/>
<path d="M151.945 53.7418C153.994 53.7418 155.641 51.9665 155.641 49.7966V47.9424H148.323V49.7966C148.323 51.9665 149.933 53.7418 151.945 53.7418Z" fill="#FCFAFA"/>
<path d="M158.568 38.6309H155.276" stroke="#161515" stroke-width="3" stroke-miterlimit="10" stroke-linecap="round" stroke-linejoin="round"/>
<path d="M146.129 38.6309H142.836" stroke="#161515" stroke-width="3" stroke-miterlimit="10" stroke-linecap="round" stroke-linejoin="round"/>
<path d="M154.287 43.1682H161.385C162.373 43.1682 163.141 42.3003 163.141 41.2745V36.9743C163.141 35.9091 162.336 35.0806 161.385 35.0806H154.287C153.299 35.0806 152.531 35.9485 152.531 36.9743V41.2745C152.531 42.3397 153.336 43.1682 154.287 43.1682Z" stroke="#F6CDF7" stroke-width="3" stroke-miterlimit="10" stroke-linecap="round" stroke-linejoin="round"/>
<path d="M149.385 6.28046C153.812 0.12597 161.349 0.244327 162.739 0.0865199C163.983 -0.189643 170.825 0.165425 175.837 1.58569C187.399 4.89965 195.448 16.1829 195.448 29.1231V45.6929C195.448 56.8183 187.838 70.3108 178.069 73.822C172.654 75.7946 166.654 77.2938 165.227 77.0571C172.471 62.5782 171.483 54.0172 169.434 49.0068C164.532 36.7767 150.153 37.2107 146.604 23.5998C146.531 23.2053 144.299 13.3818 149.385 6.28046Z" fill="#754743"/>
<path d="M104.236 120.137C103.871 119.112 103.688 118.007 103.688 116.863C103.688 111.616 107.602 107.395 112.468 107.395C117.335 107.395 121.249 111.616 121.249 116.863C121.249 118.007 121.066 119.112 120.701 120.137H104.236Z" fill="#EF9067"/>
<path d="M132.408 120.652C133.14 117.022 137.201 114.261 142.14 114.261C147.043 114.261 151.141 117.022 151.873 120.652H132.408Z" fill="#F4EFF0"/>
<path d="M180.593 93.0357C177.643 93.0357 175.252 88.9909 175.252 84.0013C175.252 79.0117 177.643 74.9668 180.593 74.9668C183.543 74.9668 185.935 79.0117 185.935 84.0013C185.935 88.9909 183.543 93.0357 180.593 93.0357Z" fill="#EF9067"/>
<path d="M164.422 111.103C171.447 111.103 177.154 104.949 177.154 97.3738V80.6068C177.154 78.003 179.13 75.8726 181.545 75.8726C183.959 75.8726 185.935 78.003 185.935 80.6068V97.3738C185.935 110.196 176.313 120.571 164.422 120.571H146.604V111.103H155.531H164.422Z" fill="#FC9F6F"/>
<path d="M90.4428 120.651H131.42C131.932 120.651 132.371 120.178 132.371 119.625C132.371 119.073 131.932 118.6 131.42 118.6H90.4062C89.894 118.6 89.455 119.073 89.455 119.625C89.455 120.178 89.894 120.651 90.4428 120.651Z" fill="white"/>
<path d="M90.4429 119.626H131.42C131.786 119.626 132.079 119.429 132.262 119.113C132.335 119.271 132.408 119.429 132.408 119.626C132.408 120.178 131.969 120.652 131.457 120.652H90.4429C89.9306 120.652 89.4916 120.178 89.4916 119.626C89.4916 119.429 89.5282 119.271 89.6379 119.113C89.7843 119.389 90.077 119.626 90.4429 119.626Z" fill="#F4EFF0"/>
<path d="M123.481 120.651H131.42C131.932 120.651 132.371 120.178 132.371 119.625C132.371 119.073 131.932 118.6 131.42 118.6H123.481C122.969 118.6 122.53 119.073 122.53 119.625C122.53 120.178 122.932 120.651 123.481 120.651Z" fill="#F4EFF0"/>
<path d="M93.3337 118.599H96.3338V117.85C96.3338 117.455 96.0411 117.1 95.6386 117.1H94.0288C93.663 117.1 93.3337 117.416 93.3337 117.85V118.599Z" fill="#F4EFF0"/>
<path d="M96.9922 118.599H99.9924V117.85C99.9924 117.455 99.6997 117.1 99.2972 117.1H97.6874C97.3215 117.1 96.9922 117.416 96.9922 117.85V118.599Z" fill="#F4EFF0"/>
<path d="M100.65 118.599H103.651V117.85C103.651 117.455 103.358 117.1 102.955 117.1H101.346C100.98 117.1 100.65 117.416 100.65 117.85V118.599Z" fill="#F4EFF0"/>
<path d="M104.309 118.599H107.309V117.85C107.309 117.455 107.017 117.1 106.614 117.1H105.004C104.638 117.1 104.309 117.416 104.309 117.85V118.599Z" fill="#F4EFF0"/>
<path d="M107.968 118.599H110.968V117.85C110.968 117.455 110.675 117.1 110.273 117.1H108.663C108.297 117.1 107.968 117.416 107.968 117.85V118.599Z" fill="#F4EFF0"/>
<path d="M111.626 118.599H114.627V117.85C114.627 117.455 114.334 117.1 113.931 117.1H112.322C111.956 117.1 111.626 117.416 111.626 117.85V118.599Z" fill="#F4EFF0"/>
<path d="M115.285 118.599H118.285V117.85C118.285 117.455 117.993 117.1 117.59 117.1H115.98C115.615 117.1 115.285 117.416 115.285 117.85V118.599Z" fill="#F4EFF0"/>
<path d="M118.944 118.599H121.944V117.85C121.944 117.455 121.651 117.1 121.249 117.1H119.639C119.273 117.1 118.944 117.416 118.944 117.85V118.599Z" fill="#F4EFF0"/>
<path d="M122.603 118.599H125.603V117.85C125.603 117.455 125.31 117.1 124.908 117.1H123.298C122.932 117.1 122.603 117.416 122.603 117.85V118.599Z" fill="#F4EFF0"/>
<path d="M126.262 118.599H129.262V117.85C129.262 117.455 128.969 117.1 128.567 117.1H126.957C126.591 117.1 126.262 117.416 126.262 117.85V118.599Z" fill="#F4EFF0"/>
<path d="M131.42 120.652H123.481C122.969 120.652 122.53 120.179 122.53 119.626H132.408C132.408 120.179 131.969 120.652 131.42 120.652Z" fill="#E2E2E2"/>
<path d="M127.872 152.687H156.812L157.031 136.117H121.176C118.762 136.117 116.822 138.208 116.822 140.812C116.859 147.4 121.798 152.687 127.872 152.687Z" fill="#352934"/>
<path d="M151.141 212.772L133.396 148.071C132.811 145.901 130.945 144.402 128.823 144.402C128.384 144.402 127.908 144.481 127.469 144.599C124.945 145.388 123.518 148.268 124.249 150.99L141.994 215.691L151.141 212.772Z" fill="#EF9067"/>
<path d="M136.396 207.485L151.141 202.791L132.555 135.052C131.347 130.673 127.067 128.148 123.006 129.45C118.944 130.751 116.603 135.367 117.81 139.746L136.396 207.485Z" fill="#352934"/>
<path d="M63.1491 101.477H124.615C125.823 101.477 126.81 100.412 126.81 99.1097L119.2 51.7675C119.2 50.4656 118.212 49.4004 117.005 49.4004H55.5391C54.3317 49.4004 53.3438 50.4656 53.3438 51.7675L60.9539 99.1097C60.9539 100.412 61.9052 101.477 63.1491 101.477Z" fill="#CECECE"/>
<path d="M59.4903 101.477H120.956C122.164 101.477 123.152 100.412 123.152 99.1097L115.542 51.7675C115.542 50.4656 114.554 49.4004 113.346 49.4004H51.8802C50.6729 49.4004 49.685 50.4656 49.685 51.7675L57.2951 99.1097C57.2951 100.412 58.2464 101.477 59.4903 101.477Z" fill="#F4EFF0"/>
<path d="M78.2594 118.086L83.3084 90.5095H92.3088C93.4064 90.5095 94.2479 91.6142 94.0284 92.7583L89.5647 117.1C89.3818 118.007 90.0404 118.836 90.8819 118.836H96.3699C97.3578 118.836 98.1261 119.704 98.1261 120.73H88.9062H80.3448C78.9911 120.769 78.0033 119.467 78.2594 118.086Z" fill="#CECECE"/>
<path d="M77.784 120.77H87.1136L92.5285 91.1808C92.6017 90.8257 92.3456 90.5496 92.0163 90.5496H81.5158L76.3205 118.915C76.1741 119.862 76.8693 120.77 77.784 120.77Z" fill="#F4EFF0"/>
<path d="M88.8696 120.77H87.1134L87.5891 118.087H89.3818L88.8696 120.77Z" fill="#F4EFF0"/>
<path d="M88.8698 120.77C87.9552 120.77 87.26 119.862 87.443 118.876L87.5893 118.087H89.565L88.8698 120.77Z" fill="#CECECE"/>
<path d="M80.8205 76.3862C82.7962 76.3862 84.406 74.6503 84.406 72.5199C84.406 71.8098 84.2231 71.1786 83.9304 70.6263C84.4426 70.4685 84.9914 70.3501 85.5768 70.3501C88.6867 70.3501 91.1746 73.0723 91.1746 76.3862C91.1746 79.7002 88.6501 82.4224 85.5768 82.4224C82.4669 82.4224 79.979 79.7002 79.979 76.3862C79.979 76.3468 79.979 76.3073 79.979 76.2679C80.2717 76.3468 80.5278 76.3862 80.8205 76.3862Z" fill="#CECECE"/>
<path d="M123.371 143.65L153.519 152.211C161.714 154.539 170.019 148.266 174.007 137.89L127.286 127.593C123.188 126.449 118.981 129.092 117.92 133.511C116.822 137.969 119.273 142.506 123.371 143.65Z" fill="#3B323A"/>
<path d="M93.0406 192.967L107.09 199.713L131.713 139.983C133.433 135.801 131.676 130.909 127.798 129.055C123.92 127.2 119.383 129.094 117.664 133.276L93.0406 192.967Z" fill="#3B323A"/>
<path d="M197.496 131.697H40.8309C38.9284 131.697 37.3552 130 37.3552 127.949V124.398C37.3552 122.347 38.9284 120.65 40.8309 120.65H197.496C199.399 120.65 200.972 122.347 200.972 124.398V127.949C200.972 130 199.435 131.697 197.496 131.697Z" fill="#F2F2F2"/>
<path d="M70.1372 212.179L101.273 218.294C102.48 218.531 103.614 217.702 103.87 216.479L104.09 215.414C104.712 212.337 102.883 209.22 99.8824 208.392L77.1985 202.198C72.8081 201.014 68.3811 203.184 67.5762 207.169L67.2834 208.589C66.9542 210.207 68.2347 211.824 70.1372 212.179Z" fill="#535452"/>
<path d="M68.9299 209.141L103.724 215.966C103.797 215.966 103.87 216.006 103.944 216.006L103.834 216.479C103.578 217.741 102.444 218.53 101.236 218.294L70.1007 212.179C68.1981 211.824 66.881 210.206 67.2103 208.589L67.2469 208.47C67.7591 208.786 68.3079 209.023 68.9299 209.141Z" fill="#FFFDFD"/>
<path d="M134.421 233.287L160.434 213.877C161.422 213.127 161.715 211.667 161.056 210.602L160.507 209.655C158.934 207.012 155.568 206.183 152.934 207.919L132.847 220.86C128.933 223.384 127.25 228.316 129.298 231.709L130.03 232.932C130.835 234.313 132.847 234.47 134.421 233.287Z" fill="#424441"/>
<path d="M131.567 232.062L160.653 210.363C160.726 210.324 160.763 210.245 160.836 210.206L161.056 210.6C161.678 211.665 161.422 213.125 160.434 213.875L134.42 233.285C132.847 234.468 130.835 234.311 130.03 232.93L129.957 232.811C130.506 232.693 131.054 232.417 131.567 232.062Z" fill="#CECECE"/>
<path d="M206.461 120.653H212.388C215.388 120.653 217.839 118.009 217.839 114.774V97.376H201.009V114.774C200.972 118.009 203.424 120.653 206.461 120.653Z" fill="#FF6161"/>
<path d="M215.936 99.7424C219.851 99.7424 222.998 103.175 222.998 107.357C222.998 111.539 219.815 114.971 215.936 114.971C212.058 114.971 208.875 111.539 208.875 107.357C208.875 103.175 212.058 99.7424 215.936 99.7424ZM215.936 113.314C218.973 113.314 221.461 110.631 221.461 107.357C221.461 104.082 218.973 101.399 215.936 101.399C212.9 101.399 210.412 104.082 210.412 107.357C210.448 110.671 212.9 113.314 215.936 113.314Z" fill="#F4A36C"/>
<path d="M206.461 120.653H212.388C215.388 120.653 217.839 118.009 217.839 114.774V97.376H201.009V114.774C200.972 118.009 203.424 120.653 206.461 120.653Z" fill="#F7BC8B"/>
<path d="M209.863 115.129C211.546 115.129 212.9 113.67 212.9 111.855V97.376H217.839V114.774C217.839 118.009 215.388 120.653 212.388 120.653H206.461C203.57 120.653 201.192 118.207 201.009 115.129H209.863Z" fill="#EFA573"/>
<path d="M140.092 120.65C139.726 119.625 139.543 118.52 139.543 117.376C139.543 112.129 143.458 107.907 148.324 107.907C153.19 107.907 157.105 112.129 157.105 117.376C157.105 118.52 156.922 119.625 156.556 120.65H140.092Z" fill="#FC9F6F"/>
<path opacity="0.77" d="M211.253 94.22C209.94 94.22 208.875 93.0719 208.875 91.6557C208.875 90.2394 209.94 89.0913 211.253 89.0913C212.567 89.0913 213.631 90.2394 213.631 91.6557C213.631 93.0719 212.567 94.22 211.253 94.22Z" fill="#F2F2F2"/>
<path opacity="0.77" d="M206.863 86.525C204.903 86.525 203.314 84.8117 203.314 82.6982C203.314 80.5847 204.903 78.8713 206.863 78.8713C208.823 78.8713 210.412 80.5847 210.412 82.6982C210.412 84.8117 208.823 86.525 206.863 86.525Z" fill="#F2F2F2"/>
<path d="M241.584 61.8292C236.007 61.8292 231.486 56.9541 231.486 50.9405C231.486 44.9268 236.007 40.0518 241.584 40.0518C247.161 40.0518 251.682 44.9268 251.682 50.9405C251.682 56.9541 247.161 61.8292 241.584 61.8292Z" fill="#E6F4F1"/>
</svg>
