<svg width="219" height="236" viewBox="0 0 219 236" fill="none" xmlns="http://www.w3.org/2000/svg">
<path d="M104.11 236C161.608 236 208.22 230.215 208.22 223.079C208.22 215.942 161.608 210.157 104.11 210.157C46.6116 210.157 0 215.942 0 223.079C0 230.215 46.6116 236 104.11 236Z" fill="#212552"/>
<path d="M81.0186 213.954V209.761C81.0186 207.891 79.4792 206.36 77.5977 206.36H39.9676C38.0861 206.36 36.5467 207.891 36.5467 209.761V222.229C36.5467 224.099 38.0861 225.629 39.9676 225.629H64.9973C67.734 225.629 70.3567 224.552 72.2953 222.625L81.0186 213.954Z" fill="#92D6E9"/>
<path opacity="0.3" d="M77.5977 206.36H39.9676C38.0861 206.36 36.5467 207.891 36.5467 209.761V221.322H73.6066L81.0186 213.954V209.761C81.0186 207.891 79.4792 206.36 77.5977 206.36Z" fill="#0A1E2B" stroke="#0A1E2B" stroke-width="3.43037" stroke-miterlimit="10" stroke-linecap="round" stroke-linejoin="round"/>
<path d="M127.201 213.954V209.761C127.201 207.891 128.74 206.36 130.622 206.36H168.252C170.133 206.36 171.673 207.891 171.673 209.761V222.229C171.673 224.099 170.133 225.629 168.252 225.629H143.222C140.485 225.629 137.863 224.552 135.924 222.625L127.201 213.954Z" fill="#92D6E9"/>
<path opacity="0.3" d="M168.252 206.36H130.622C128.74 206.36 127.201 207.891 127.201 209.761V213.954L134.613 221.322H171.673V209.761C171.673 207.891 170.133 206.36 168.252 206.36Z" fill="#0A1E2B" stroke="#0A1E2B" stroke-width="3.43037" stroke-miterlimit="10" stroke-linecap="round" stroke-linejoin="round"/>
<path d="M81.0186 213.954V209.761C81.0186 207.891 79.4792 206.36 77.5977 206.36H39.9676C38.0861 206.36 36.5467 207.891 36.5467 209.761V222.229C36.5467 224.099 38.0861 225.629 39.9676 225.629H64.9973C67.734 225.629 70.3567 224.552 72.2953 222.625L81.0186 213.954Z" stroke="#212552" stroke-width="3.43037" stroke-miterlimit="10" stroke-linecap="round" stroke-linejoin="round"/>
<path d="M127.201 213.954V209.761C127.201 207.891 128.74 206.36 130.622 206.36H168.252C170.133 206.36 171.673 207.891 171.673 209.761V222.229C171.673 224.099 170.133 225.629 168.252 225.629H143.222C140.485 225.629 137.863 224.552 135.924 222.625L127.201 213.954Z" stroke="#212552" stroke-width="3.43037" stroke-miterlimit="10" stroke-linecap="round" stroke-linejoin="round"/>
<path d="M178.23 214.011H29.99C17.3896 214.011 7.1839 203.867 7.1839 191.342V43.9942C7.1839 31.4696 17.3896 21.3253 29.99 21.3253H178.23C190.83 21.3253 201.036 31.4696 201.036 43.9942V191.342C201.036 203.867 190.83 214.011 178.23 214.011Z" fill="#CBEDF9"/>
<path d="M178.23 21.3253H29.99C17.3896 21.3253 7.1839 31.4696 7.1839 43.9942V57.0288C7.1839 44.5042 17.3896 34.3599 29.99 34.3599H178.23C190.83 34.3599 201.036 44.5042 201.036 57.0288V43.9942C201.036 31.4696 190.83 21.3253 178.23 21.3253Z" fill="#E8F9FF"/>
<path opacity="0.23" d="M143.279 21.0986H157.875L148.012 41.7273L143.279 21.0986Z" fill="#0A1E2B" stroke="#0A1E2B" stroke-width="3.43037" stroke-miterlimit="10" stroke-linecap="round" stroke-linejoin="round"/>
<path d="M178.23 200.976H29.99C17.3896 200.976 7.1839 190.832 7.1839 178.308V191.342C7.1839 203.867 17.3896 214.011 29.99 214.011H178.23C190.83 214.011 201.036 203.867 201.036 191.342V178.308C201.036 190.832 190.83 200.976 178.23 200.976Z" fill="#92D6E9"/>
<path d="M178.23 214.011H29.99C17.3896 214.011 7.1839 203.867 7.1839 191.342V43.9942C7.1839 31.4696 17.3896 21.3253 29.99 21.3253H178.23C190.83 21.3253 201.036 31.4696 201.036 43.9942V191.342C201.036 203.867 190.83 214.011 178.23 214.011Z" stroke="#212552" stroke-width="3.43037" stroke-miterlimit="10" stroke-linecap="round" stroke-linejoin="round"/>
<path d="M171.388 41.7273H36.8318C31.8144 41.7273 27.7094 45.8077 27.7094 50.7949V55.3287C27.7094 50.3415 31.8144 47.9612 36.8318 47.9612H171.388C176.405 47.9612 180.51 50.3415 180.51 55.3287V50.7949C180.51 45.751 176.405 41.7273 171.388 41.7273Z" fill="#E8F9FF"/>
<path d="M171.388 186.242H36.8318C31.8144 186.242 27.7094 182.161 27.7094 177.174V184.542C27.7094 189.529 31.8144 193.609 36.8318 193.609H171.388C176.405 193.609 180.51 189.529 180.51 184.542V177.174C180.51 182.161 176.405 186.242 171.388 186.242Z" fill="#92D6E9"/>
<path d="M36.8318 193.609C31.8144 193.609 27.7094 189.529 27.7094 184.542V50.7949C27.7094 45.8077 31.8144 41.7273 36.8318 41.7273H171.388C176.405 41.7273 180.51 45.8077 180.51 50.7949V184.542C180.51 189.529 176.405 193.609 171.388 193.609H36.8318Z" stroke="#212552" stroke-width="3.43037" stroke-miterlimit="10" stroke-linecap="round" stroke-linejoin="round"/>
<path opacity="0.23" d="M164.147 171.564H163.007C161.752 171.564 160.726 170.543 160.726 169.297V83.1548C160.726 81.908 161.752 80.8879 163.007 80.8879H164.147C165.401 80.8879 166.427 81.908 166.427 83.1548V169.297C166.427 170.543 165.401 171.564 164.147 171.564Z" fill="#0A1E2B" stroke="#0A1E2B" stroke-width="3.43037" stroke-miterlimit="10" stroke-linecap="round" stroke-linejoin="round"/>
<path d="M164.147 160.229H163.007C161.752 160.229 160.726 159.209 160.726 157.962V71.8203C160.726 70.5735 161.752 69.5534 163.007 69.5534H164.147C165.401 69.5534 166.427 70.5735 166.427 71.8203V157.962C166.427 159.209 165.401 160.229 164.147 160.229Z" fill="#92D6E9"/>
<path d="M164.147 160.229H163.007C161.752 160.229 160.726 159.209 160.726 157.962V71.8203C160.726 70.5735 161.752 69.5534 163.007 69.5534H164.147C165.401 69.5534 166.427 70.5735 166.427 71.8203V157.962C166.427 159.209 165.401 160.229 164.147 160.229Z" stroke="#212552" stroke-width="3.43037" stroke-miterlimit="10" stroke-linecap="round" stroke-linejoin="round"/>
<path opacity="0.23" d="M104.11 159.039C124.577 159.039 141.17 142.546 141.17 122.202C141.17 101.857 124.577 85.365 104.11 85.365C83.6421 85.365 67.0498 101.857 67.0498 122.202C67.0498 142.546 83.6421 159.039 104.11 159.039Z" fill="#0A1E2B" stroke="#0A1E2B" stroke-width="3.43037" stroke-miterlimit="10" stroke-linecap="round" stroke-linejoin="round"/>
<path d="M104.11 154.505C124.577 154.505 141.17 138.013 141.17 117.668C141.17 97.3237 124.577 80.8312 104.11 80.8312C83.6421 80.8312 67.0498 97.3237 67.0498 117.668C67.0498 138.013 83.6421 154.505 104.11 154.505Z" fill="#CBEDF9"/>
<path d="M104.11 154.505C124.577 154.505 141.17 138.013 141.17 117.668C141.17 97.3237 124.577 80.8312 104.11 80.8312C83.6421 80.8312 67.0498 97.3237 67.0498 117.668C67.0498 138.013 83.6421 154.505 104.11 154.505Z" stroke="#212552" stroke-width="3.43037" stroke-miterlimit="10" stroke-linecap="round" stroke-linejoin="round"/>
<path d="M104.11 148.271C121.114 148.271 134.898 134.57 134.898 117.668C134.898 100.767 121.114 87.0651 104.11 87.0651C87.106 87.0651 73.3216 100.767 73.3216 117.668C73.3216 134.57 87.106 148.271 104.11 148.271Z" fill="#92D6E9"/>
<path d="M104.11 94.4325V140.904" stroke="#212552" stroke-width="5.71729" stroke-miterlimit="10" stroke-linecap="round" stroke-linejoin="round"/>
<path d="M127.486 117.668H80.7335" stroke="#212552" stroke-width="5.71729" stroke-miterlimit="10" stroke-linecap="round" stroke-linejoin="round"/>
<path d="M120.644 101.233L87.5754 134.103" stroke="#212552" stroke-width="5.71729" stroke-miterlimit="10" stroke-linecap="round" stroke-linejoin="round"/>
<path d="M120.644 134.103L87.5754 101.233" stroke="#212552" stroke-width="5.71729" stroke-miterlimit="10" stroke-linecap="round" stroke-linejoin="round"/>
<path opacity="0.3" d="M104.11 144.701C96.2417 144.701 89.856 138.354 89.856 130.533V116.365H118.364V130.533C118.364 138.354 111.978 144.701 104.11 144.701Z" fill="#0A1E2B" stroke="#0A1E2B" stroke-width="3.43037" stroke-miterlimit="10" stroke-linecap="round" stroke-linejoin="round"/>
<path opacity="0.23" d="M27.7094 96.4161C25.2007 96.4161 23.1481 94.3759 23.1481 91.8823V78.2809C23.1481 75.7873 25.2007 73.7471 27.7094 73.7471C30.218 73.7471 32.2706 75.7873 32.2706 78.2809V91.8823C32.2706 94.3759 30.218 96.4161 27.7094 96.4161Z" fill="#0A1E2B" stroke="#0A1E2B" stroke-width="3.43037" stroke-miterlimit="10" stroke-linecap="round" stroke-linejoin="round"/>
<path opacity="0.23" d="M27.7094 170.373C25.2007 170.373 23.1481 168.333 23.1481 165.84V152.238C23.1481 149.745 25.2007 147.705 27.7094 147.705C30.218 147.705 32.2706 149.745 32.2706 152.238V165.84C32.2706 168.333 30.218 170.373 27.7094 170.373Z" fill="#0A1E2B" stroke="#0A1E2B" stroke-width="3.43037" stroke-miterlimit="10" stroke-linecap="round" stroke-linejoin="round"/>
<path d="M27.7094 91.8823C25.2007 91.8823 23.1481 89.8421 23.1481 87.3485V73.7471C23.1481 71.2536 25.2007 69.2133 27.7094 69.2133C30.218 69.2133 32.2706 71.2536 32.2706 73.7471V87.3485C32.2706 89.8421 30.218 91.8823 27.7094 91.8823Z" fill="#92D6E9"/>
<path d="M27.7094 166.123C25.2007 166.123 23.1481 164.083 23.1481 161.589V147.988C23.1481 145.494 25.2007 143.454 27.7094 143.454C30.218 143.454 32.2706 145.494 32.2706 147.988V161.589C32.2706 164.083 30.218 166.123 27.7094 166.123Z" fill="#92D6E9"/>
<path d="M27.7094 91.8823C25.2007 91.8823 23.1481 89.8421 23.1481 87.3485V73.7471C23.1481 71.2536 25.2007 69.2133 27.7094 69.2133C30.218 69.2133 32.2706 71.2536 32.2706 73.7471V87.3485C32.2706 89.8421 30.218 91.8823 27.7094 91.8823Z" stroke="#212552" stroke-width="3.43037" stroke-miterlimit="10" stroke-linecap="round" stroke-linejoin="round"/>
<path d="M27.7094 166.123C25.2007 166.123 23.1481 164.083 23.1481 161.589V147.988C23.1481 145.494 25.2007 143.454 27.7094 143.454C30.218 143.454 32.2706 145.494 32.2706 147.988V161.589C32.2706 164.083 30.218 166.123 27.7094 166.123Z" stroke="#212552" stroke-width="3.43037" stroke-miterlimit="10" stroke-linecap="round" stroke-linejoin="round"/>
<path d="M104.11 131.836C111.982 131.836 118.364 125.493 118.364 117.668C118.364 109.843 111.982 103.5 104.11 103.5C96.2376 103.5 89.856 109.843 89.856 117.668C89.856 125.493 96.2376 131.836 104.11 131.836Z" fill="#FFEA9E"/>
<path d="M104.11 124.015C107.637 124.015 110.496 121.174 110.496 117.668C110.496 114.163 107.637 111.321 104.11 111.321C100.583 111.321 97.7241 114.163 97.7241 117.668C97.7241 121.174 100.583 124.015 104.11 124.015Z" fill="#EDC75D"/>
<path d="M104.11 130.703C111.352 130.703 117.223 124.867 117.223 117.668C117.223 110.469 111.352 104.634 104.11 104.634C96.8674 104.634 90.9963 110.469 90.9963 117.668C90.9963 124.867 96.8674 130.703 104.11 130.703Z" stroke="#212552" stroke-width="4.57383" stroke-miterlimit="10" stroke-linecap="round" stroke-linejoin="round"/>
<path d="M149.152 41.7273H110.096V12.1443C110.096 9.87744 111.921 8.06393 114.201 8.06393H144.99C147.27 8.06393 149.095 9.87744 149.095 12.1443L149.152 41.7273Z" fill="#5F9E71" stroke="#212552" stroke-width="3.43037" stroke-miterlimit="10" stroke-linecap="round" stroke-linejoin="round"/>
<path d="M141.455 15.0913H133.131C133.131 17.0182 131.591 18.5483 129.653 18.5483C127.714 18.5483 126.175 17.0182 126.175 15.0913H117.793C116.824 15.0913 115.969 15.8847 115.969 16.9048V41.7273H143.222V16.9048C143.279 15.8847 142.424 15.0913 141.455 15.0913Z" fill="#90C49E"/>
<path d="M129.653 43.7675C134.376 43.7675 138.205 40.1391 138.205 35.6633C138.205 31.1875 134.376 27.5592 129.653 27.5592C124.929 27.5592 121.1 31.1875 121.1 35.6633C121.1 40.1391 124.929 43.7675 129.653 43.7675Z" fill="white"/>
<path d="M149.152 41.7273H110.096V12.1443C110.096 9.87744 111.921 8.06393 114.201 8.06393H144.99C147.27 8.06393 149.095 9.87744 149.095 12.1443L149.152 41.7273Z" stroke="#212552" stroke-width="3.43037" stroke-miterlimit="10" stroke-linecap="round" stroke-linejoin="round"/>
<path d="M217 31.4129L205.483 29.8261" stroke="#212552" stroke-width="3.43037" stroke-miterlimit="10" stroke-linecap="round" stroke-linejoin="round"/>
<path d="M189.576 13.4478L187.865 2" stroke="#212552" stroke-width="3.43037" stroke-miterlimit="10" stroke-linecap="round" stroke-linejoin="round"/>
<path d="M200.979 17.5849L209.246 9.3674" stroke="#212552" stroke-width="3.43037" stroke-miterlimit="10" stroke-linecap="round" stroke-linejoin="round"/>
</svg>
