<svg width="303" height="249" viewBox="0 0 303 249" fill="none" xmlns="http://www.w3.org/2000/svg">
<g opacity="0.15">
<path opacity="0.15" d="M3.00003 87.3787H38.0138V104.445H3.00003" stroke="#474747" stroke-width="4.08031" stroke-miterlimit="10" stroke-linecap="round" stroke-linejoin="round"/>
<path opacity="0.15" d="M72.9835 104.445H38.0138" stroke="#474747" stroke-width="4.08031" stroke-miterlimit="10" stroke-linecap="round" stroke-linejoin="round"/>
<path opacity="0.15" d="M38.0138 87.3787H51.4196" stroke="#474747" stroke-width="4.08031" stroke-miterlimit="10" stroke-linecap="round" stroke-linejoin="round"/>
<path opacity="0.15" d="M55.4766 104.445H20.5069V121.51H55.4766V104.445Z" stroke="#474747" stroke-width="4.08031" stroke-miterlimit="10" stroke-linecap="round" stroke-linejoin="round"/>
<path opacity="0.15" d="M8.46817 121.599H38.0138V138.665H26.6806" stroke="#474747" stroke-width="4.08031" stroke-miterlimit="10" stroke-linecap="round" stroke-linejoin="round"/>
<path opacity="0.15" d="M72.9835 121.599H38.0138V138.665H72.9835V121.599Z" stroke="#474747" stroke-width="4.08031" stroke-miterlimit="10" stroke-linecap="round" stroke-linejoin="round"/>
<path opacity="0.15" d="M189.535 149.16H224.548V166.182H189.535" stroke="#474747" stroke-width="4.08031" stroke-miterlimit="10" stroke-linecap="round" stroke-linejoin="round"/>
<path opacity="0.15" d="M259.518 166.182H224.548" stroke="#474747" stroke-width="4.08031" stroke-miterlimit="10" stroke-linecap="round" stroke-linejoin="round"/>
<path opacity="0.15" d="M224.548 149.16H237.954" stroke="#474747" stroke-width="4.08031" stroke-miterlimit="10" stroke-linecap="round" stroke-linejoin="round"/>
<path opacity="0.15" d="M242.011 166.182H207.041V183.248H242.011V166.182Z" stroke="#474747" stroke-width="4.08031" stroke-miterlimit="10" stroke-linecap="round" stroke-linejoin="round"/>
<path opacity="0.15" d="M195.003 183.336H224.548V200.402H213.215" stroke="#474747" stroke-width="4.08031" stroke-miterlimit="10" stroke-linecap="round" stroke-linejoin="round"/>
<path opacity="0.15" d="M247.082 200.402H224.548V183.336H253.697" stroke="#474747" stroke-width="4.08031" stroke-miterlimit="10" stroke-linecap="round" stroke-linejoin="round"/>
<path opacity="0.15" d="M129.738 23.4807H75.453V67.4905H129.738V23.4807Z" stroke="#474747" stroke-width="4.08031" stroke-miterlimit="10" stroke-linecap="round" stroke-linejoin="round"/>
<path opacity="0.15" d="M82.9496 57.3038L92.8717 42.8838L103.191 55.6281" stroke="#474747" stroke-width="4.08031" stroke-miterlimit="10" stroke-linecap="round" stroke-linejoin="round"/>
<path opacity="0.15" d="M99.3982 50.9538L113.289 37.5039L123.123 57.3039" stroke="#474747" stroke-width="4.08031" stroke-miterlimit="10" stroke-linecap="round" stroke-linejoin="round"/>
<path opacity="0.15" d="M95.7822 46.4557C96.4878 44.3831 98.4281 42.8838 100.721 42.8838C102.617 42.8838 104.293 43.898 105.219 45.4415" stroke="#474747" stroke-width="4.08031" stroke-miterlimit="10" stroke-linecap="round" stroke-linejoin="round"/>
<path opacity="0.15" d="M270.895 97.2125H193.68C190.813 97.2125 188.52 94.9194 188.52 92.053C188.52 89.1867 190.813 86.8936 193.68 86.8936H270.895C273.762 86.8936 276.055 89.1867 276.055 92.053C276.055 94.9194 273.762 97.2125 270.895 97.2125Z" stroke="#474747" stroke-width="4.08031" stroke-miterlimit="10" stroke-linecap="round" stroke-linejoin="round"/>
<path opacity="0.15" d="M244.348 86.8937H221.726L217.052 58.0095H249.067L244.348 86.8937Z" stroke="#474747" stroke-width="4.08031" stroke-miterlimit="10" stroke-linecap="round" stroke-linejoin="round"/>
<path opacity="0.15" d="M253.477 49.6309H212.774V58.0095H253.477V49.6309Z" stroke="#474747" stroke-width="4.08031" stroke-miterlimit="10" stroke-linecap="round" stroke-linejoin="round"/>
<g opacity="0.15">
<path opacity="0.15" d="M238.307 49.6308C235.529 49.6308 232.75 49.6308 229.972 49.6308C227.679 41.6491 225.695 33.2705 225.959 25.0683C226.268 21.1435 230.501 17.8362 234.162 17.8362C237.822 17.8362 242.055 21.1435 242.364 25.0683C242.54 33.2705 240.556 41.6491 238.307 49.6308Z" stroke="#474747" stroke-width="4.08031" stroke-miterlimit="10" stroke-linecap="round" stroke-linejoin="round"/>
</g>
<path opacity="0.15" d="M242.54 24.0982L248.317 14.5289C249.42 12.6768 251.933 12.2799 253.565 13.6911C255.196 15.1022 255.152 17.6158 253.477 18.9828L242.628 27.8906" stroke="#474747" stroke-width="4.08031" stroke-miterlimit="10" stroke-linecap="round" stroke-linejoin="round"/>
<path opacity="0.15" d="M248.405 14.4406L245.671 5.88562C245.23 4.56268 246.112 3.19564 247.479 3.01925C248.846 2.84286 250.037 3.90121 250.037 5.26824L249.816 12.1916" stroke="#474747" stroke-width="4.08031" stroke-miterlimit="10" stroke-linecap="round" stroke-linejoin="round"/>
</g>
<path d="M171.695 201.768L229.879 82.4133L172.282 54.3359L114.099 173.691L171.695 201.768Z" fill="#77BA85"/>
<path d="M171.695 201.768L229.879 82.4133L172.282 54.3359L114.099 173.691L171.695 201.768Z" stroke="#474747" stroke-width="4.08031" stroke-miterlimit="10" stroke-linecap="round" stroke-linejoin="round"/>
<path d="M207.086 79.4413L188.653 70.4453C185.169 77.6333 176.526 80.5879 169.338 77.1041L123.917 170.239L168.323 191.891L213.744 98.7562C206.556 95.2725 203.558 86.6293 207.086 79.4413Z" fill="#F6F9EA"/>
<path d="M207.086 79.4413L188.653 70.4453C185.169 77.6333 176.526 80.5879 169.338 77.1041L123.917 170.239L168.323 191.891L213.744 98.7562C206.556 95.2725 203.558 86.6293 207.086 79.4413Z" stroke="#474747" stroke-width="4.08031" stroke-miterlimit="10" stroke-linecap="round" stroke-linejoin="round"/>
<path d="M220.069 85.7744L175.672 64.1318L123.923 170.287L168.32 191.929L220.069 85.7744Z" stroke="#474747" stroke-width="4.08031" stroke-miterlimit="10" stroke-linecap="round" stroke-linejoin="round"/>
<path d="M176.393 133.858C184.747 133.858 191.519 127.086 191.519 118.733C191.519 110.379 184.747 103.607 176.393 103.607C168.04 103.607 161.268 110.379 161.268 118.733C161.268 127.086 168.04 133.858 176.393 133.858Z" fill="#77BA85"/>
<path d="M176.393 133.858C184.747 133.858 191.519 127.086 191.519 118.733C191.519 110.379 184.747 103.607 176.393 103.607C168.04 103.607 161.268 110.379 161.268 118.733C161.268 127.086 168.04 133.858 176.393 133.858Z" stroke="#474747" stroke-width="4.08031" stroke-miterlimit="10" stroke-linecap="round" stroke-linejoin="round"/>
<path opacity="0.15" d="M8.07129 246.484H300" stroke="#474747" stroke-width="4.08031" stroke-miterlimit="10" stroke-linecap="round" stroke-linejoin="round"/>
<path d="M180.23 246.484H87.624C73.0276 246.484 61.1652 234.622 61.1652 220.025V115.954C61.1652 101.358 73.0276 89.4954 87.624 89.4954H180.23C194.826 89.4954 206.689 101.358 206.689 115.954V220.025C206.689 234.666 194.87 246.484 180.23 246.484Z" fill="#F58870"/>
<path d="M180.23 246.484H87.624C73.0276 246.484 61.1652 234.622 61.1652 220.025V115.954C61.1652 101.358 73.0276 89.4954 87.624 89.4954H180.23C194.826 89.4954 206.689 101.358 206.689 115.954V220.025C206.689 234.666 194.87 246.484 180.23 246.484Z" fill="#F58870"/>
<path d="M180.23 241.148H87.624C73.0276 241.148 61.1652 229.286 61.1652 214.689V220.025C61.1652 234.622 73.0276 246.484 87.624 246.484H180.23C194.826 246.484 206.689 234.622 206.689 220.025V214.689C206.689 229.286 194.87 241.148 180.23 241.148Z" fill="#DD7868"/>
<path d="M180.23 89.4954H87.624C73.0276 89.4954 61.1652 100.388 61.1652 113.793V119.482C61.1652 106.076 73.0276 95.184 87.624 95.184H180.23C194.826 95.184 206.689 106.076 206.689 119.482V113.793C206.689 100.388 194.87 89.4954 180.23 89.4954Z" fill="#FFA399"/>
<path opacity="0.3" d="M149.361 154.099H125.548C121.183 154.099 117.611 150.527 117.611 146.161V97.433C117.611 93.0673 121.183 89.4954 125.548 89.4954H157.299V146.161C157.299 150.527 153.771 154.099 149.361 154.099Z" fill="#474747" stroke="#474747" stroke-width="4.08031" stroke-miterlimit="10" stroke-linecap="round" stroke-linejoin="round"/>
<path d="M180.23 246.484H87.624C73.0276 246.484 61.1652 234.622 61.1652 220.025V115.954C61.1652 101.358 73.0276 89.4954 87.624 89.4954H180.23C194.826 89.4954 206.689 101.358 206.689 115.954V220.025C206.689 234.666 194.87 246.484 180.23 246.484Z" stroke="#474747" stroke-width="4.08031" stroke-miterlimit="10" stroke-linecap="round" stroke-linejoin="round"/>
<g opacity="0.46">
<path opacity="0.46" d="M70.8667 219.364V116.616C70.8667 107.355 78.3634 99.8584 87.624 99.8584H180.23C189.49 99.8584 196.987 107.355 196.987 116.616V219.32C196.987 228.58 189.49 236.077 180.23 236.077H87.624C78.3634 236.121 70.8667 228.625 70.8667 219.364Z" stroke="#474747" stroke-width="2.72021" stroke-linecap="round" stroke-linejoin="round" stroke-dasharray="9.49 9.49"/>
</g>
<path d="M145.833 149.248H122.02C117.655 149.248 114.083 145.676 114.083 141.31V87.5109C114.083 83.1452 117.655 79.5732 122.02 79.5732H145.833C150.199 79.5732 153.771 83.1452 153.771 87.5109V141.31C153.771 145.676 150.243 149.248 145.833 149.248Z" fill="#F79765"/>
<path d="M145.833 145.588H122.02C117.655 145.588 114.083 142.016 114.083 137.65V141.311C114.083 145.676 117.655 149.248 122.02 149.248H145.833C150.199 149.248 153.771 145.676 153.771 141.311V137.65C153.771 142.016 150.243 145.588 145.833 145.588Z" fill="#E27444"/>
<path d="M145.833 79.5732H122.02C117.655 79.5732 114.083 83.1452 114.083 87.5109V90.5095C114.083 86.1438 117.655 82.5719 122.02 82.5719H145.833C150.199 82.5719 153.771 86.1438 153.771 90.5095V87.5109C153.771 83.1452 150.243 79.5732 145.833 79.5732Z" fill="#FFB797"/>
<path d="M145.833 149.248H122.02C117.655 149.248 114.083 145.676 114.083 141.31V87.5109C114.083 83.1452 117.655 79.5732 122.02 79.5732H145.833C150.199 79.5732 153.771 83.1452 153.771 87.5109V141.31C153.771 145.676 150.243 149.248 145.833 149.248Z" stroke="#474747" stroke-width="4.08031" stroke-miterlimit="10" stroke-linecap="round" stroke-linejoin="round"/>
<path opacity="0.3" d="M135.25 137.871C140.9 137.871 145.481 133.29 145.481 127.64C145.481 121.99 140.9 117.409 135.25 117.409C129.6 117.409 125.019 121.99 125.019 127.64C125.019 133.29 129.6 137.871 135.25 137.871Z" fill="#474747" stroke="#474747" stroke-width="4.08031" stroke-miterlimit="10" stroke-linecap="round" stroke-linejoin="round"/>
<g opacity="0.46">
<path opacity="0.46" d="M122.02 143.957C120.565 143.957 119.375 142.766 119.375 141.311V87.5111C119.375 86.0559 120.565 84.8652 122.02 84.8652H145.833C147.289 84.8652 148.479 86.0559 148.479 87.5111V141.311C148.479 142.766 147.289 143.957 145.833 143.957H122.02Z" stroke="#474747" stroke-width="2.72021" stroke-linecap="round" stroke-linejoin="round" stroke-dasharray="6.69 6.69"/>
</g>
<path d="M133.927 135.225C139.577 135.225 144.158 130.644 144.158 124.994C144.158 119.344 139.577 114.763 133.927 114.763C128.277 114.763 123.696 119.344 123.696 124.994C123.696 130.644 128.277 135.225 133.927 135.225Z" fill="#8F6D5D"/>
<path d="M133.927 135.225C139.577 135.225 144.158 130.644 144.158 124.994C144.158 119.344 139.577 114.763 133.927 114.763C128.277 114.763 123.696 119.344 123.696 124.994C123.696 130.644 128.277 135.225 133.927 135.225Z" stroke="#474747" stroke-width="4.08031" stroke-miterlimit="10" stroke-linecap="round" stroke-linejoin="round"/>
<g opacity="0.6">
<path opacity="0.6" d="M138.248 119.747C138.601 121.422 136.617 122.481 133.706 123.098C130.752 123.671 128.106 123.76 127.753 122.348C127.4 120.981 129.385 118.38 132.295 117.542C135.25 116.704 137.896 118.115 138.248 119.747Z" fill="#FFFCEE"/>
</g>
<path d="M281.17 246.484H250.301C248.538 246.484 247.082 245.029 247.082 243.265V241.104C247.082 239.34 248.538 237.885 250.301 237.885H281.17C282.934 237.885 284.389 239.34 284.389 241.104V243.265C284.389 245.073 282.934 246.484 281.17 246.484Z" fill="#FDB740"/>
<path opacity="0.88" d="M281.17 238.811H250.301C248.538 238.811 247.082 240.267 247.082 242.03V243.265C247.082 241.501 248.538 240.046 250.301 240.046H281.17C282.934 240.046 284.389 241.501 284.389 243.265V242.03C284.389 240.267 282.934 238.811 281.17 238.811Z" fill="#FFF3C0"/>
<path d="M281.17 245.514H250.301C248.538 245.514 247.082 244.059 247.082 242.295V241.06C247.082 242.824 248.538 244.279 250.301 244.279H281.17C282.934 244.279 284.389 242.824 284.389 241.06V242.295C284.389 244.103 282.934 245.514 281.17 245.514Z" fill="#F29E25"/>
<path d="M281.17 246.484H250.301C248.538 246.484 247.082 245.029 247.082 243.265V241.104C247.082 239.34 248.538 237.885 250.301 237.885H281.17C282.934 237.885 284.389 239.34 284.389 241.104V243.265C284.389 245.073 282.934 246.484 281.17 246.484Z" stroke="#474747" stroke-width="4.08031" stroke-miterlimit="10" stroke-linecap="round" stroke-linejoin="round"/>
<path d="M286.33 237.929H255.461C253.697 237.929 252.242 236.474 252.242 234.71V232.549C252.242 230.785 253.697 229.33 255.461 229.33H286.33C288.094 229.33 289.549 230.785 289.549 232.549V234.71C289.505 236.518 288.094 237.929 286.33 237.929Z" fill="#FDB740"/>
<path opacity="0.88" d="M286.33 230.256H255.461C253.697 230.256 252.242 231.711 252.242 233.475V234.71C252.242 232.946 253.697 231.491 255.461 231.491H286.33C288.094 231.491 289.549 232.946 289.549 234.71V233.475C289.505 231.711 288.094 230.256 286.33 230.256Z" fill="#FFF3C0"/>
<path d="M286.33 236.959H255.461C253.697 236.959 252.242 235.504 252.242 233.74V232.505C252.242 234.269 253.697 235.724 255.461 235.724H286.33C288.094 235.724 289.549 234.269 289.549 232.505V233.74C289.505 235.548 288.094 236.959 286.33 236.959Z" fill="#F29E25"/>
<path d="M286.33 237.929H255.461C253.697 237.929 252.242 236.474 252.242 234.71V232.549C252.242 230.785 253.697 229.33 255.461 229.33H286.33C288.094 229.33 289.549 230.785 289.549 232.549V234.71C289.505 236.518 288.094 237.929 286.33 237.929Z" stroke="#474747" stroke-width="4.08031" stroke-miterlimit="10" stroke-linecap="round" stroke-linejoin="round"/>
<path d="M281.17 229.374H250.301C248.538 229.374 247.082 227.919 247.082 226.155V223.995C247.082 222.231 248.538 220.775 250.301 220.775H281.17C282.934 220.775 284.389 222.231 284.389 223.995V226.155C284.389 227.963 282.934 229.374 281.17 229.374Z" fill="#FDB740"/>
<path opacity="0.88" d="M281.17 221.746H250.301C248.538 221.746 247.082 223.201 247.082 224.965V226.2C247.082 224.436 248.538 222.98 250.301 222.98H281.17C282.934 222.98 284.389 224.436 284.389 226.2V224.965C284.389 223.157 282.934 221.746 281.17 221.746Z" fill="#FFF3C0"/>
<path d="M281.17 228.449H250.301C248.538 228.449 247.082 226.993 247.082 225.229V223.995C247.082 225.759 248.538 227.214 250.301 227.214H281.17C282.934 227.214 284.389 225.759 284.389 223.995V225.229C284.389 226.993 282.934 228.449 281.17 228.449Z" fill="#F29E25"/>
<path d="M281.17 229.374H250.301C248.538 229.374 247.082 227.919 247.082 226.155V223.995C247.082 222.231 248.538 220.775 250.301 220.775H281.17C282.934 220.775 284.389 222.231 284.389 223.995V226.155C284.389 227.963 282.934 229.374 281.17 229.374Z" stroke="#474747" stroke-width="4.08031" stroke-miterlimit="10" stroke-linecap="round" stroke-linejoin="round"/>
<path d="M246.245 222.936L225.166 245.47C223.975 246.749 221.947 246.837 220.624 245.602L219.08 244.147C217.801 242.956 217.713 240.928 218.948 239.605L240.027 217.071C241.217 215.792 243.246 215.704 244.569 216.938L246.112 218.394C247.347 219.628 247.435 221.613 246.245 222.936Z" fill="#FDB740"/>
<path opacity="0.88" d="M240.644 217.688L219.565 240.222C218.375 241.501 218.419 243.529 219.698 244.764L220.624 245.602C219.345 244.411 219.257 242.383 220.491 241.06L241.57 218.526C242.761 217.247 244.789 217.159 246.112 218.394L245.186 217.556C243.863 216.321 241.835 216.409 240.644 217.688Z" fill="#FFF3C0"/>
<path d="M245.539 222.274L224.46 244.808C223.269 246.087 221.241 246.175 219.918 244.941L218.992 244.103C220.271 245.293 222.299 245.249 223.534 243.97L244.613 221.436C245.804 220.158 245.759 218.129 244.481 216.894L245.407 217.732C246.641 218.967 246.73 220.995 245.539 222.274Z" fill="#F29E25"/>
<path d="M246.245 222.936L225.166 245.47C223.975 246.749 221.947 246.837 220.624 245.602L219.08 244.147C217.801 242.956 217.713 240.928 218.948 239.605L240.027 217.071C241.217 215.792 243.246 215.704 244.569 216.938L246.112 218.394C247.347 219.628 247.435 221.613 246.245 222.936Z" stroke="#474747" stroke-width="4.08031" stroke-miterlimit="10" stroke-linecap="round" stroke-linejoin="round"/>
</svg>
